# xmcd
#
# Track frame offsets:
#	150
#	16715
#	29052
#	42072
#	55117
#	66640
#	79397
#	100055
#	117102
#	132747
#
# Disc length: 1954 seconds
#
# Revision: 3
# Processed by: cddbd v1.4PL0 Copyright (c) Steve Scherf et al.
# Submitted via: audiograbber 1.82.01
#
DISCID=8807a00a
DTITLE=Various Artist - The Taste Of Country
DYEAR=1997
DGENRE=Country
TTITLE0=Lari White - That's How You Know (When You're In Love)
TTITLE1=Ray Vega - Remember When
TTITLE2=Baillie and The Boys - Long Shot
TTITLE3=Earl Thomas Conley - Chance Of Lovin' You
TTITLE4=Martina McBride - The Time Has Come
TTITLE5=Alabama - I'm In A Hurry (And Don't Know Why)
TTITLE6=Jon Randall - What You Don't Know
TTITLE7=Lorrie Morgan - Half Enough
TTITLE8=Restless Heart - That Rock Won't Roll
TTITLE9=Ronnie Milsap - Snap Your Fingers
EXTD=
EXTT0=
EXTT1=
EXTT2=
EXTT3=
EXTT4=
EXTT5=
EXTT6=
EXTT7=
EXTT8=
EXTT9=
PLAYORDER=
